PathFileType	3	(X/Y/Z)	RCH0000002 BBF 15.c3d
DataRate	CameraRate	NumFrames	NumMarkers	Units	OrigDataRate	OrigDataStartFrame	OrigNumFrames
100.0	100.0	10	23	mm	100.0	278	276
Frame#	Time	T2			MAN			LASI			RASI			LPSI			LPAT			LKNE			LANK			LMED			LHEE			LTOE			RPAT			RKNE			RANK			RMED			RHEE			RTOE			RPSI			T10			RTHI			LTHI			RTIB			LTIB			
		X1	Y1	Z1	X2	Y2	Z2	X3	Y3	Z3	X4	Y4	Z4	X5	Y5	Z5	X6	Y6	Z6	X7	Y7	Z7	X8	Y8	Z8	X9	Y9	Z9	X10	Y10	Z10	X11	Y11	Z11	X12	Y12	Z12	X13	Y13	Z13	X14	Y14	Z14	X15	Y15	Z15	X16	Y16	Z16	X17	Y17	Z17	X18	Y18	Z18	X19	Y19	Z19	X20	Y20	Z20	X21	Y21	Z21	X22	Y22	Z22	X23	Y23	Z23	

278	2.770	265.91313	50.23238	929.46651	139.12681	35.09844	967.84450	262.30830	65.74014	618.32767	236.65252	-106.31301	655.66836	144.74318	44.06884	675.71145	366.72117	6.18063	404.13093	344.55922	67.32804	350.47923	326.45110	88.30125	80.87553	327.62059	16.89855	91.02943	283.75657	46.30608	102.50618	375.47487	52.66776	80.48473	138.47536	-60.88722	363.54841	84.57438	-114.72469	351.53131	-40.29737	-110.16920	101.14655	-49.83850	-44.13506	119.60236	-75.52914	-85.48151	148.93713	-6.80254	-67.97189	75.08724	137.10652	-25.30897	694.47250	148.26554	21.12305	774.35459	144.59061	-181.28886	448.05474	294.91346	143.53144	460.83727	25.04081	-179.90400	243.16847	340.02840	138.84697	242.14372	
279	2.780	276.81439	51.27119	927.98477	149.81516	36.75761	965.23288	275.73973	65.56313	616.93095	249.39936	-106.58041	652.81727	158.19636	44.15067	674.15667	375.89807	4.70788	399.23074	353.90837	66.56589	346.23226	333.60306	88.64869	76.83528	333.59479	17.26833	87.08195	290.30840	47.17920	98.65359	382.27265	52.35782	76.71813	151.57297	-60.81470	359.92949	96.74367	-113.93666	348.87639	-34.93395	-110.49304	102.37857	-43.87953	-44.36535	120.94806	-68.29818	-85.59030	151.36526	-2.97840	-68.19696	74.59953	150.24403	-25.42193	692.19029	161.40859	20.98994	771.79359	156.11631	-180.89278	445.53488	307.17382	142.94878	457.78609	34.50111	-179.51578	242.62722	349.39677	138.39035	238.14493	
280	2.790	287.92294	52.19825	926.70464	160.68662	38.30340	962.84610	288.76458	65.67963	615.92993	262.31659	-106.65630	649.81751	171.38544	43.92957	673.01693	384.55260	4.06033	394.66844	362.45711	66.41026	342.32063	338.76543	89.20992	73.23442	337.75902	17.90614	83.69755	295.07200	48.24972	95.47552	387.13871	52.33344	73.30180	165.62469	-60.49178	356.02074	109.90819	-112.92855	345.83152	-28.72909	-110.72827	103.72599	-37.11039	-44.50171	122.36019	-60.04019	-85.59914	153.89332	1.43627	-68.35857	74.16751	163.35437	-25.86698	690.10980	174.69935	20.55541	769.53257	168.42364	-180.27761	442.74490	318.51464	142.90491	455.00539	45.06667	-178.95516	241.91198	357.34979	138.37619	234.44097	
281	2.800	299.21768	52.97365	925.67158	171.72383	39.67816	960.76279	301.28574	66.11169	615.38350	275.31142	-106.51339	646.74467	184.21329	43.40858	672.36089	392.61184	4.29190	390.61672	370.16013	66.91436	338.91146	342.26895	90.05821	70.17764	340.41819	18.87808	80.97393	298.34694	49.60147	93.04022	390.37980	52.65157	70.34607	180.59933	-59.89398	351.92364	124.04858	-111.68851	342.46933	-21.62160	-110.83660	105.24608	-29.46236	-44.50169	123.87649	-50.70846	-85.45063	156.54397	6.53900	-68.44479	73.87438	176.34267	-26.63429	688.30766	188.04502	19.82847	767.65420	181.49236	-179.42720	439.75403	328.85378	143.45222	452.64375	56.73651	-178.19848	241.07961	364.01570	138.88651	231.15551	
282	2.810	310.66850	53.56011	924.93694	182.90243	40.82581	959.06238	313.23193	66.86776	615.33560	288.28740	-106.13088	643.69695	196.60592	42.61423	672.24417	399.99037	5.40779	387.19432	376.96225	68.09785	336.12406	344.46504	91.23260	67.72447	341.89193	20.21564	78.96077	300.44480	51.28667	91.36184	392.32218	53.33470	67.92059	196.44852	-59.00953	347.77771	139.12936	-110.21468	338.89866	-13.55044	-110.79537	107.00396	-20.86812	-44.33814	125.54251	-40.27378	-85.10457	159.34574	12.44700	-68.45611	73.81385	189.12308	-27.68878	686.86054	201.34843	18.83523	766.23705	195.28534	-178.33601	436.66576	338.13558	144.60845	450.81864	69.49364	-177.23487	240.21705	369.52825	139.96681	228.37143	
283	2.820	322.23843	53.92593	924.55319	194.19286	41.69549	957.81968	324.56254	67.94105	615.80995	301.15006	-105.49728	640.78979	208.51697	41.59667	672.70329	406.60040	7.35860	384.45873	382.80675	69.94184	334.02138	345.69266	92.73161	65.88464	342.48915	21.90935	77.65649	301.66066	53.31474	90.39875	393.28554	54.36869	66.05160	213.10740	-57.83937	343.75364	155.09938	-108.51569	335.25941	-4.45723	-110.59976	109.06434	-11.26545	-44.00188	127.40571	-28.72817	-84.54225	162.32779	19.29377	-68.40529	74.08146	201.62363	-28.97064	685.83906	214.51374	17.61860	765.34937	209.74860	-177.00997	433.61257	346.33827	146.35190	449.60494	83.30518	-176.06752	239.43611	374.00973	141.61833	226.12568	
284	2.830	333.88621	54.04779	924.56834	205.56246	42.24538	957.09894	335.26931	69.30930	616.80661	313.81273	-104.61226	638.14772	219.92922	40.42669	673.75130	412.36360	10.04083	382.40794	387.64593	72.38732	332.60992	346.25044	94.51199	64.62240	342.48754	23.90745	77.01242	302.25116	55.64615	90.06136	393.56080	55.70504	64.72511	230.49618	-56.39599	340.04213	171.89264	-106.61019	331.71356	5.71082	-110.26231	111.48146	-0.60111	-43.50164	129.50780	-16.08669	-83.76772	165.51312	27.22280	-68.31506	74.76414	213.78971	-30.39916	685.30169	227.45207	16.23631	765.04297	224.81202	-175.46635	430.74687	353.47807	148.62136	449.02958	98.12320	-174.71319	238.86384	377.55808	143.79538	224.41180	
285	2.840	345.56900	53.91305	925.02008	216.97748	42.44634	956.94813	345.37447	70.93628	618.30104	326.20188	-103.48734	635.89424	230.85295	39.18947	675.37565	417.22329	13.30447	380.99049	391.45270	75.33775	331.84741	346.37851	96.49258	63.86812	342.12049	26.11998	76.94338	302.42215	58.19254	90.22796	393.39461	57.26696	63.89487	248.52273	-54.70132	336.83936	189.42994	-104.52563	328.43313	16.99794	-109.80963	114.28858	11.16560	-42.86143	131.87652	-2.38681	-82.80576	168.91126	36.37891	-68.21412	75.92935	225.58594	-31.87975	685.28924	240.08664	14.75721	765.34800	240.39124	-173.73268	428.22876	359.60924	151.32093	449.07263	113.88651	-173.20011	238.62941	380.24135	146.40835	223.18916	
286	2.850	357.24505	53.52146	925.93035	228.40502	42.28496	957.39409	354.92579	72.77499	620.24557	338.26156	-102.14507	634.14073	241.32140	37.97600	677.53827	421.15560	16.96746	380.12137	394.23157	78.66595	331.65636	346.25148	98.56295	63.53414	341.57216	28.42774	77.34238	302.32648	60.82387	90.76485	392.98164	58.95853	63.49303	267.08619	-52.78449	334.33073	207.62149	-102.29639	325.58635	29.43718	-109.27717	117.48899	24.06038	-42.11581	134.51805	12.31502	-81.69697	172.51151	46.89795	-68.13212	77.61524	236.99632	-33.31313	685.82052	252.35665	13.25633	766.26934	256.39087	-171.84481	426.21225	364.82010	154.32944	449.67417	130.52327	-171.56468	238.84925	382.10093	149.33222	222.39594	
287	2.860	368.87587	52.88586	927.30104	239.81455	41.76544	958.43914	363.98921	74.77203	622.57307	349.95657	-100.61667	632.97579	251.38409	36.87333	680.17760	424.17802	20.83495	379.69990	396.02688	82.22492	331.93987	345.98205	100.59586	63.53071	340.97961	30.69542	78.09634	302.07023	63.38222	91.54628	392.46437	60.67557	63.44129	286.08149	-50.67988	332.67491	226.37030	-99.96180	323.32379	43.04818	-108.70272	121.05002	38.09259	-41.30394	137.41138	27.94896	-80.49076	176.27813	58.89602	-68.09447	79.82354	248.02285	-34.60544	686.88945	264.21968	11.80902	767.78497	272.70908	-169.84451	424.83139	369.22541	157.51278	450.74499	147.95408	-169.84751	239.61260	383.16240	152.41955	221.96236	
